<?xml version="1.0" encoding="UTF-8" ?>
<!DOCTYPE svg PUBLIC "-//W3C//DTD SVG 1.1//EN" "http://www.w3.org/Graphics/SVG/1.1/DTD/svg11.dtd">
<svg width="356pt" height="149pt" viewBox="0 0 356 149" version="1.1" xmlns="http://www.w3.org/2000/svg">
<g id="#0a1614ff">
<path fill="#0a1614" opacity="1.00" d=" M 0.00 0.00 L 356.00 0.00 L 356.00 149.00 L 0.00 149.00 L 0.00 0.00 M 4.54 4.55 L 4.41 6.21 C 119.10 6.07 233.79 6.12 348.47 6.19 L 348.58 4.63 C 233.90 4.60 119.21 4.83 4.54 4.55 M 109.15 9.82 C 109.04 14.12 108.66 18.42 108.97 22.72 C 109.45 22.34 110.42 21.59 110.90 21.21 C 111.56 17.39 110.73 13.51 110.90 9.66 C 110.65 9.25 110.16 8.42 109.91 8.01 C 109.72 8.46 109.34 9.37 109.15 9.82 M 4.40 9.46 C 4.40 13.59 4.35 17.72 4.29 21.85 C 4.86 21.85 5.98 21.85 6.54 21.86 C 6.50 20.12 6.46 18.38 6.43 16.64 C 8.15 16.59 9.88 16.50 11.60 16.37 C 10.19 15.09 8.28 15.02 6.50 14.81 C 6.48 13.95 6.45 12.22 6.43 11.36 C 8.39 11.36 10.35 11.38 12.32 11.38 C 12.32 10.89 12.34 9.90 12.34 9.41 C 9.69 9.42 7.05 9.44 4.40 9.46 M 77.46 12.26 C 74.13 13.92 75.26 18.32 75.77 21.26 C 77.35 22.42 79.40 22.05 81.23 22.23 C 81.25 21.20 81.30 19.14 81.32 18.11 C 80.11 19.07 78.92 20.05 77.84 21.15 C 77.78 20.25 77.67 18.45 77.61 17.55 C 78.95 17.51 80.29 17.46 81.63 17.42 C 81.33 15.19 81.90 12.08 78.61 12.14 C 79.53 10.90 80.39 9.62 81.17 8.30 C 79.30 8.96 78.45 10.72 77.46 12.26 M 93.08 12.86 C 93.40 13.31 94.03 14.21 94.35 14.66 C 94.28 17.05 94.23 19.43 94.20 21.82 C 94.74 21.82 95.82 21.82 96.36 21.82 C 96.36 17.46 96.67 13.10 96.28 8.74 C 95.19 10.10 94.13 11.48 93.08 12.86 M 229.43 10.49 C 229.45 14.28 229.47 18.06 229.39 21.84 C 229.96 21.84 231.10 21.85 231.67 21.85 C 231.70 21.11 231.78 19.64 231.82 18.90 C 232.66 20.49 233.85 21.79 235.55 22.51 C 234.90 20.37 234.01 18.29 233.60 16.08 C 234.34 14.66 235.14 13.27 236.00 11.92 C 234.56 12.53 233.15 13.22 231.65 13.64 C 231.76 12.15 231.90 10.66 232.02 9.18 C 231.15 9.61 230.29 10.05 229.43 10.49 M 346.17 21.91 C 346.76 21.87 347.94 21.79 348.53 21.75 C 348.46 17.41 348.48 13.08 348.30 8.74 C 344.52 12.00 346.66 17.56 346.17 21.91 M 173.70 9.18 C 173.77 13.65 173.63 18.13 173.84 22.60 C 176.61 21.74 175.73 18.81 175.94 16.63 C 176.85 16.59 177.77 16.56 178.68 16.53 C 178.71 18.31 178.78 20.08 178.80 21.86 C 179.50 21.86 180.89 21.85 181.59 21.85 C 181.39 18.07 181.32 14.28 181.50 10.50 C 178.96 9.72 176.34 9.32 173.70 9.18 M 293.63 9.23 C 293.70 13.71 293.57 18.20 293.81 22.68 C 296.85 21.73 295.64 18.38 296.05 16.05 C 300.11 16.50 297.20 22.19 301.30 22.58 C 301.25 20.34 301.12 18.10 300.88 15.88 C 301.10 14.06 301.33 12.24 301.54 10.42 C 298.96 9.66 296.30 9.31 293.63 9.23 M 331.78 21.56 C 332.41 21.67 333.67 21.88 334.29 21.99 C 334.24 17.59 334.31 13.18 334.15 8.78 C 330.08 11.66 332.52 17.38 331.78 21.56 M 22.33 12.39 C 22.32 15.51 22.30 18.63 22.32 21.75 C 22.87 21.79 23.95 21.86 24.50 21.89 C 24.50 19.03 24.52 16.16 24.51 13.30 C 25.25 13.96 26.73 15.26 27.47 15.92 C 27.31 14.63 27.51 13.41 28.09 12.24 C 26.17 12.27 24.25 12.31 22.33 12.39 M 39.96 12.22 C 39.56 15.16 38.89 18.26 39.85 21.16 C 41.17 22.81 43.46 21.92 45.25 22.16 C 45.25 21.16 45.26 19.15 45.27 18.14 C 44.14 19.13 43.01 20.10 41.85 21.05 C 41.91 18.69 41.97 16.33 41.81 13.98 C 42.25 14.04 43.11 14.16 43.54 14.22 C 43.20 15.50 42.87 16.78 42.54 18.07 C 46.43 18.47 45.26 14.91 45.37 12.82 C 43.59 12.42 41.76 12.41 39.96 12.22 M 57.43 12.29 C 57.38 15.47 57.35 18.65 57.33 21.84 C 57.91 21.83 59.05 21.82 59.63 21.81 C 59.53 19.11 59.46 16.41 59.35 13.71 L 61.30 13.71 C 61.29 16.47 61.29 19.22 61.36 21.98 C 61.87 21.91 62.88 21.77 63.39 21.69 C 63.37 18.59 63.36 15.48 63.32 12.37 C 61.36 12.33 59.39 12.31 57.43 12.29 M 123.35 12.51 C 123.12 15.55 123.11 18.59 123.29 21.63 C 125.02 21.97 126.75 22.28 128.49 22.57 C 128.75 20.98 128.82 19.37 128.49 17.79 C 127.56 18.99 126.64 20.20 125.73 21.41 C 125.58 18.67 125.54 15.93 125.55 13.18 C 126.54 14.22 127.52 15.25 128.51 16.29 C 128.70 15.01 128.88 13.72 129.04 12.44 C 127.14 12.43 125.24 12.45 123.35 12.51 M 140.87 12.86 C 140.53 15.54 140.43 18.29 140.90 20.97 C 142.26 23.32 145.23 21.74 147.36 21.70 C 147.39 18.60 147.41 15.50 147.34 12.40 C 145.18 12.33 142.91 11.91 140.87 12.86 M 193.64 12.55 C 193.52 15.58 193.51 18.61 193.55 21.64 C 195.54 21.79 197.70 22.77 199.56 21.62 C 200.43 19.14 200.16 16.47 200.27 13.89 C 199.96 13.44 199.34 12.53 199.03 12.07 C 197.23 12.21 195.43 12.37 193.64 12.55 M 212.32 12.47 C 212.16 15.60 212.14 18.74 212.28 21.88 C 214.11 22.00 215.95 22.09 217.79 22.13 C 217.72 20.78 217.62 19.43 217.49 18.08 C 216.45 19.04 215.47 20.05 214.44 21.01 C 214.31 18.54 214.16 16.06 214.16 13.58 C 215.35 14.29 216.49 15.07 217.60 15.89 C 217.68 14.72 217.73 13.55 217.75 12.38 C 215.94 12.38 214.13 12.42 212.32 12.47 M 263.30 12.71 C 263.33 13.89 263.38 15.07 263.42 16.25 C 262.87 17.65 261.45 19.09 262.36 20.66 C 263.22 22.97 266.19 22.25 268.09 22.13 C 269.31 22.20 270.55 22.29 271.78 22.37 C 271.12 21.59 270.46 20.80 269.81 20.02 C 270.11 19.13 270.71 17.36 271.02 16.47 C 269.64 16.89 268.27 17.32 266.90 17.73 C 267.53 16.73 268.18 15.73 268.84 14.74 C 268.72 14.21 268.49 13.15 268.38 12.62 C 267.80 12.38 266.64 11.90 266.06 11.66 C 265.37 11.92 263.99 12.44 263.30 12.71 M 313.55 12.39 C 313.39 15.48 313.37 18.58 313.41 21.67 C 315.44 21.91 317.67 22.84 319.58 21.66 C 320.72 18.63 320.02 15.33 319.68 12.22 C 317.63 12.23 315.59 12.29 313.55 12.39 M 3.67 26.85 C 8.41 27.55 13.21 27.18 17.99 27.26 C 128.15 27.31 238.32 27.18 348.49 27.40 L 348.46 25.71 C 234.98 25.83 121.49 25.79 8.00 25.80 C 6.49 25.79 4.91 25.89 3.67 26.85 M 2.45 40.49 C 4.10 48.76 2.98 57.26 4.43 65.55 C 6.50 65.51 8.56 65.47 10.63 65.42 C 12.90 74.49 12.16 83.88 13.51 93.07 C 37.64 93.70 61.80 93.36 85.94 93.45 C 90.10 93.63 95.00 92.44 98.43 95.49 C 102.88 99.37 106.73 103.92 110.18 108.71 C 113.40 113.12 115.48 118.36 119.71 121.98 C 120.05 107.68 119.55 93.38 119.40 79.08 C 133.62 100.54 146.73 122.72 159.03 145.32 C 159.37 145.38 160.03 145.49 160.36 145.54 C 160.56 127.65 160.76 109.71 159.54 91.86 C 168.23 109.97 177.17 127.98 186.03 146.02 C 191.16 132.86 195.89 119.54 201.70 106.66 C 205.99 97.26 212.00 88.58 219.63 81.59 C 219.49 95.65 219.90 109.73 219.47 123.79 C 219.85 123.63 220.62 123.31 221.01 123.15 C 224.97 116.16 228.79 109.03 233.59 102.56 C 235.96 99.73 238.14 96.50 241.42 94.64 C 245.88 93.77 250.48 94.36 255.01 94.25 C 274.39 94.16 293.77 94.56 313.16 94.60 C 315.02 90.92 316.68 87.14 318.42 83.40 C 320.96 86.81 322.71 90.71 324.26 94.66 C 333.85 94.70 343.43 94.63 353.02 94.57 C 352.22 88.71 349.51 83.40 347.33 77.98 C 345.14 72.88 343.45 67.55 340.50 62.82 C 340.83 63.26 341.49 64.16 341.82 64.61 C 343.67 64.53 345.53 64.41 347.39 64.35 C 349.10 56.85 348.49 49.10 349.52 41.51 C 319.69 40.97 289.85 41.43 260.01 41.22 C 257.82 41.27 255.57 41.08 253.44 41.67 C 249.05 43.97 246.03 48.14 241.83 50.70 C 235.87 49.09 233.03 40.38 226.02 41.21 C 220.34 41.26 214.66 41.31 209.00 40.86 C 199.68 40.62 190.35 40.85 181.02 40.69 C 176.48 40.74 171.89 40.33 167.39 41.10 C 167.09 46.66 167.41 52.25 167.64 57.81 C 165.79 53.21 162.69 49.29 160.27 45.00 C 159.34 43.48 158.46 41.86 157.03 40.74 C 150.69 40.34 144.32 40.80 137.97 40.59 C 92.79 40.69 47.62 40.21 2.45 40.49 Z" />
<path fill="#0a1614" opacity="1.00" d=" M 175.66 15.21 C 175.76 13.15 176.15 11.13 178.16 10.08 C 178.41 11.62 178.63 13.17 178.82 14.72 C 178.03 14.84 176.45 15.09 175.66 15.21 Z" />
<path fill="#0a1614" opacity="1.00" d=" M 295.77 11.16 C 296.49 11.19 297.92 11.24 298.64 11.27 C 298.64 12.45 298.65 13.63 298.66 14.81 C 297.98 14.85 296.61 14.94 295.93 14.98 C 295.88 13.71 295.82 12.44 295.77 11.16 Z" />
<path fill="#0a1614" opacity="1.00" d=" M 77.60 14.19 C 79.17 13.60 79.74 14.14 79.30 15.82 C 77.72 16.41 77.15 15.87 77.60 14.19 Z" />
<path fill="#0a1614" opacity="1.00" d=" M 197.39 21.65 C 194.98 19.16 195.39 15.13 197.26 12.44 C 197.72 15.49 197.73 18.59 197.39 21.65 Z" />
<path fill="#0a1614" opacity="1.00" d=" M 315.91 12.90 C 318.77 14.88 317.82 19.07 316.49 21.72 C 315.95 18.81 315.83 15.85 315.91 12.90 Z" />
<path fill="#0a1614" opacity="1.00" d=" M 264.14 18.12 C 264.71 18.23 265.85 18.45 266.42 18.55 C 266.48 19.08 266.61 20.13 266.67 20.66 C 266.12 20.64 265.02 20.60 264.47 20.58 C 264.39 19.97 264.22 18.73 264.14 18.12 Z" />
<path fill="#0a1614" opacity="1.00" d=" M 109.05 44.69 C 111.86 44.71 114.65 44.22 117.38 43.55 C 119.86 46.95 122.56 50.18 125.48 53.21 C 125.72 50.41 125.97 47.61 126.26 44.81 C 135.97 44.78 145.72 44.33 155.40 45.30 C 160.73 54.03 165.68 63.02 171.48 71.45 C 172.31 62.82 171.02 54.06 172.12 45.51 C 185.28 45.01 198.48 45.45 211.66 45.41 C 211.69 48.58 211.75 51.74 211.85 54.91 C 212.36 54.74 213.36 54.41 213.86 54.25 C 215.87 51.19 217.90 48.09 220.53 45.52 C 222.35 43.65 225.53 44.00 227.33 45.74 C 232.18 49.83 236.96 54.02 241.71 58.23 C 244.48 53.57 249.05 50.49 253.14 47.12 C 254.75 45.69 256.93 45.50 258.99 45.52 C 287.24 45.48 315.50 45.58 343.76 45.43 C 344.82 50.40 343.81 55.42 343.17 60.37 C 340.48 60.39 337.80 60.40 335.12 60.43 C 339.13 70.44 343.13 80.47 347.56 90.31 C 341.00 90.72 334.44 90.57 327.88 90.52 C 325.76 85.62 323.20 80.94 320.61 76.29 C 319.46 76.28 318.32 76.28 317.19 76.28 C 314.35 80.68 312.66 85.70 309.90 90.13 C 299.64 90.97 289.34 89.66 279.06 89.77 C 266.71 89.79 254.35 89.55 242.01 89.74 C 233.32 92.27 229.26 101.27 224.37 108.08 C 224.96 101.42 224.65 94.73 225.08 88.06 C 225.22 84.15 225.60 80.19 224.92 76.30 C 222.47 76.25 219.54 75.66 217.53 77.46 C 208.67 85.22 202.13 95.14 196.13 105.18 C 191.19 113.74 188.19 123.27 186.00 132.86 C 181.46 122.49 175.33 112.91 170.23 102.81 C 165.20 94.01 160.83 84.84 155.41 76.27 C 155.42 90.18 155.44 104.10 155.52 118.01 C 155.57 121.09 155.20 124.15 154.57 127.16 C 150.81 121.68 148.54 115.39 145.26 109.63 C 138.97 98.58 131.64 88.16 123.85 78.11 C 121.88 75.12 117.79 76.53 114.80 76.11 C 114.84 86.68 115.24 97.25 115.58 107.82 C 113.00 103.40 109.22 99.90 105.47 96.49 C 102.42 93.93 99.47 90.90 95.62 89.63 C 89.64 89.05 83.61 89.71 77.61 89.41 C 77.50 85.09 77.50 80.76 77.14 76.45 C 74.04 80.36 72.35 85.12 69.57 89.20 C 61.75 89.93 53.86 89.15 46.02 89.42 C 36.43 89.13 26.81 89.81 17.26 88.79 C 16.52 79.69 15.40 70.61 15.31 61.48 C 13.08 61.48 10.84 61.48 8.61 61.47 C 7.89 55.84 7.20 50.20 7.19 44.51 C 41.14 44.52 75.09 44.74 109.05 44.69 M 98.71 60.13 C 99.10 61.34 99.49 62.55 99.87 63.77 C 97.38 63.75 94.89 63.75 92.40 63.78 C 92.31 62.34 92.22 60.90 92.14 59.46 C 93.78 59.54 95.42 59.61 97.07 59.68 C 101.98 55.29 107.35 51.45 112.19 46.97 C 95.52 46.81 78.85 46.87 62.18 46.93 C 62.22 55.63 62.23 64.33 62.23 73.02 C 62.42 75.04 60.66 76.35 59.63 77.85 C 58.47 76.61 57.32 75.36 56.17 74.10 C 56.45 65.05 55.68 56.02 55.03 47.00 C 40.15 46.72 25.25 46.89 10.36 46.95 C 10.37 51.13 10.39 55.31 10.41 59.49 C 12.86 59.44 15.30 59.40 17.75 59.37 C 18.30 68.64 19.15 77.90 19.36 87.19 C 29.85 87.23 40.36 87.66 50.85 87.17 C 47.95 83.49 44.90 79.94 42.06 76.22 C 38.79 76.32 35.53 76.66 32.27 76.97 C 32.24 75.70 32.21 74.42 32.18 73.15 C 35.06 73.30 37.94 73.45 40.83 73.55 C 40.96 70.20 40.80 66.85 40.56 63.51 C 37.52 63.57 34.49 63.60 31.46 63.66 C 31.39 62.25 31.32 60.83 31.25 59.42 C 35.36 59.52 39.46 59.52 43.57 59.46 C 43.77 64.84 43.87 70.26 44.64 75.60 C 47.50 79.83 51.54 83.17 54.53 87.34 C 59.01 87.34 63.51 87.68 67.98 87.25 C 70.35 83.57 72.66 79.78 74.50 75.81 C 75.05 70.37 74.64 64.87 74.46 59.41 C 76.15 59.45 77.84 59.48 79.53 59.50 C 79.22 68.85 80.13 78.16 80.24 87.50 C 84.63 87.36 89.03 87.37 93.43 87.34 C 93.45 82.40 93.41 77.46 93.32 72.53 C 95.16 72.65 97.00 72.68 98.84 72.79 C 98.87 77.51 98.50 82.25 98.97 86.96 C 103.32 91.24 108.46 94.68 112.39 99.41 C 112.78 90.84 112.57 82.25 112.38 73.68 C 115.96 73.79 119.53 73.78 123.10 73.75 C 132.00 83.58 139.30 94.78 145.57 106.43 C 148.27 111.25 150.07 116.50 152.74 121.32 C 153.14 102.81 152.88 84.28 152.81 65.76 C 163.00 84.24 174.01 102.26 184.28 120.70 C 185.20 116.87 184.92 112.91 184.89 109.01 C 184.83 91.82 185.00 74.63 184.83 57.45 C 193.08 57.29 201.34 57.38 209.60 57.41 C 209.58 54.06 209.58 50.70 209.64 47.35 C 198.11 47.44 186.59 47.34 175.07 47.35 C 175.04 58.68 175.38 70.01 174.86 81.33 C 168.03 69.71 160.42 58.56 153.81 46.81 C 145.34 46.95 136.87 46.76 128.41 47.03 C 128.45 50.54 128.46 54.04 128.56 57.55 C 134.89 57.51 141.22 57.62 147.55 57.51 C 148.75 59.66 150.04 61.75 151.36 63.83 C 144.48 63.77 137.60 63.83 130.72 63.73 C 125.74 57.64 121.37 51.06 116.03 45.26 C 110.38 50.36 104.51 55.21 98.71 60.13 M 208.56 63.96 C 201.33 63.98 194.09 63.83 186.86 64.10 C 186.90 83.07 186.58 102.05 186.79 121.01 C 190.68 111.60 194.42 101.90 200.82 93.84 C 205.97 86.76 211.60 79.98 218.14 74.13 C 221.37 74.11 224.61 74.11 227.85 74.07 C 227.32 82.77 227.07 91.48 227.05 100.20 C 230.71 95.05 235.24 90.59 240.47 87.04 C 240.62 82.57 241.09 78.11 241.19 73.64 C 248.20 73.76 255.23 74.06 262.24 73.57 C 261.21 74.66 260.20 75.77 259.24 76.91 C 254.86 76.81 250.48 76.81 246.10 76.86 C 245.79 80.55 245.68 84.26 245.39 87.95 C 250.28 87.81 255.17 88.13 260.05 87.95 C 262.47 88.07 263.96 85.92 265.61 84.52 C 270.36 79.86 275.66 75.81 280.46 71.21 C 277.81 68.58 275.48 65.61 272.57 63.25 C 267.87 62.50 263.07 63.12 258.33 62.92 C 258.54 60.18 260.30 57.87 263.11 57.51 C 269.34 57.10 275.60 57.51 281.84 57.37 C 281.34 63.73 280.85 70.11 280.88 76.50 C 278.86 76.73 276.34 75.99 274.90 77.83 C 271.41 81.32 267.61 84.50 264.28 88.15 C 278.84 87.53 293.40 88.36 307.95 88.36 C 308.36 87.97 309.17 87.19 309.57 86.81 C 311.17 82.47 313.25 78.34 315.04 74.09 C 317.65 74.04 320.27 73.96 322.88 73.87 C 324.93 78.83 327.47 83.56 329.87 88.35 C 334.66 88.29 339.45 88.50 344.25 88.34 C 340.36 78.04 336.01 67.90 331.32 57.95 C 334.60 58.11 337.89 58.32 341.18 58.07 C 341.77 54.66 341.82 51.19 342.28 47.76 C 332.56 48.10 322.86 47.24 313.14 47.34 C 308.81 57.10 303.27 66.26 298.82 75.96 C 297.05 76.06 295.29 76.13 293.53 76.25 C 293.95 70.08 294.20 63.91 294.28 57.73 C 298.17 58.04 302.09 58.34 306.00 58.01 C 308.15 54.80 309.64 51.20 311.54 47.84 C 293.68 47.91 275.82 47.82 257.96 47.85 C 256.79 47.77 255.77 48.10 254.90 48.85 C 251.77 51.21 248.94 53.91 245.83 56.29 C 245.70 58.50 245.61 60.71 245.54 62.92 C 244.21 62.96 242.87 63.01 241.55 63.06 C 241.75 59.22 237.91 57.56 235.49 55.39 C 231.49 52.40 228.16 48.59 224.02 45.79 C 218.05 51.09 213.82 58.00 208.56 63.96 M 131.08 59.41 C 131.11 59.91 131.15 60.91 131.17 61.41 C 136.59 61.52 142.02 61.68 147.42 61.13 C 142.76 57.68 136.46 59.93 131.08 59.41 M 188.67 59.59 C 188.65 60.08 188.59 61.06 188.57 61.54 C 194.88 61.69 201.19 61.76 207.51 61.63 C 207.60 61.09 207.79 60.01 207.88 59.48 C 201.48 59.41 195.07 59.25 188.67 59.59 M 261.18 60.23 C 265.41 61.25 269.78 61.18 274.10 61.42 C 275.43 63.10 276.78 64.77 278.16 66.42 C 278.58 64.07 278.99 61.73 279.41 59.38 C 273.35 59.34 267.03 58.10 261.18 60.23 M 296.81 60.87 C 296.30 63.79 296.39 66.77 296.35 69.72 L 295.95 69.87 C 295.99 71.54 296.03 73.20 296.11 74.87 C 297.53 72.81 298.78 70.63 299.83 68.36 L 300.11 68.25 C 301.13 65.42 302.24 62.62 303.34 59.82 C 301.19 60.09 298.32 58.83 296.81 60.87 Z" />
<path fill="#0a1614" opacity="1.00" d=" M 320.31 56.74 C 321.54 59.06 322.75 61.40 323.99 63.72 C 321.32 63.74 318.66 63.75 316.00 63.75 C 317.48 61.44 318.93 59.11 320.31 56.74 Z" />
<path fill="#0a1614" opacity="1.00" d=" M 110.77 59.98 C 112.12 59.29 113.44 58.55 114.86 57.99 C 116.34 59.80 117.57 61.82 118.88 63.77 C 116.20 63.76 113.52 63.76 110.84 63.80 C 110.82 62.53 110.79 61.26 110.77 59.98 Z" />
<path fill="#0a1614" opacity="1.00" d=" M 219.78 63.91 C 221.55 61.87 223.33 59.83 225.02 57.72 C 226.69 59.59 228.14 61.66 228.80 64.12 C 225.79 64.09 222.78 64.00 219.78 63.91 Z" />
<path fill="#0a1614" opacity="1.00" d=" M 134.34 73.27 C 137.34 73.37 140.34 73.39 143.34 73.35 C 143.32 76.91 143.47 80.48 143.77 84.04 C 141.44 79.81 138.32 76.05 134.34 73.27 Z" />
<path fill="#0a1614" opacity="1.00" d=" M 196.21 73.43 C 199.22 73.48 202.23 73.45 205.25 73.40 C 201.84 76.70 198.63 80.21 196.06 84.21 C 196.17 80.62 196.24 77.03 196.21 73.43 Z" />
</g>
<g id="#baa261ff">
<path fill="#baa261" opacity="1.00" d=" M 4.54 4.55 C 119.21 4.83 233.90 4.60 348.58 4.63 L 348.47 6.19 C 233.79 6.12 119.10 6.07 4.41 6.21 L 4.54 4.55 Z" />
<path fill="#baa261" opacity="1.00" d=" M 109.15 9.82 C 109.34 9.37 109.72 8.46 109.91 8.01 C 110.16 8.42 110.65 9.25 110.90 9.66 C 110.73 13.51 111.56 17.39 110.90 21.21 C 110.42 21.59 109.45 22.34 108.97 22.72 C 108.66 18.42 109.04 14.12 109.15 9.82 Z" />
<path fill="#baa261" opacity="1.00" d=" M 4.40 9.46 C 7.05 9.44 9.69 9.42 12.34 9.41 C 12.34 9.90 12.32 10.89 12.32 11.38 C 10.35 11.38 8.39 11.36 6.43 11.36 C 6.45 12.22 6.48 13.95 6.50 14.81 C 8.28 15.02 10.19 15.09 11.60 16.37 C 9.88 16.50 8.15 16.59 6.43 16.64 C 6.46 18.38 6.50 20.12 6.54 21.86 C 5.98 21.85 4.86 21.85 4.29 21.85 C 4.35 17.72 4.40 13.59 4.40 9.46 Z" />
<path fill="#baa261" opacity="1.00" d=" M 77.46 12.26 C 78.45 10.72 79.30 8.96 81.17 8.30 C 80.39 9.62 79.53 10.90 78.61 12.14 C 81.90 12.08 81.33 15.19 81.63 17.42 C 80.29 17.46 78.95 17.51 77.61 17.55 C 77.67 18.45 77.78 20.25 77.84 21.15 C 78.92 20.05 80.11 19.07 81.32 18.11 C 81.30 19.14 81.25 21.20 81.23 22.23 C 79.40 22.05 77.35 22.42 75.77 21.26 C 75.26 18.32 74.13 13.92 77.46 12.26 M 77.60 14.19 C 77.15 15.87 77.72 16.41 79.30 15.82 C 79.74 14.14 79.17 13.60 77.60 14.19 Z" />
<path fill="#baa261" opacity="1.00" d=" M 93.08 12.86 C 94.13 11.48 95.19 10.10 96.28 8.74 C 96.67 13.10 96.36 17.46 96.36 21.82 C 95.82 21.82 94.74 21.82 94.20 21.82 C 94.23 19.43 94.28 17.05 94.35 14.66 C 94.03 14.21 93.40 13.31 93.08 12.86 Z" />
<path fill="#baa261" opacity="1.00" d=" M 229.43 10.49 C 230.29 10.05 231.15 9.61 232.02 9.18 C 231.90 10.66 231.76 12.15 231.65 13.64 C 233.15 13.22 234.56 12.53 236.00 11.92 C 235.14 13.27 234.34 14.66 233.60 16.08 C 234.01 18.29 234.90 20.37 235.55 22.51 C 233.85 21.79 232.66 20.49 231.82 18.90 C 231.78 19.64 231.70 21.11 231.67 21.85 C 231.10 21.85 229.96 21.84 229.39 21.84 C 229.47 18.06 229.45 14.28 229.43 10.49 Z" />
<path fill="#baa261" opacity="1.00" d=" M 346.17 21.91 C 346.66 17.56 344.52 12.00 348.30 8.74 C 348.48 13.08 348.46 17.41 348.53 21.75 C 347.94 21.79 346.76 21.87 346.17 21.91 Z" />
<path fill="#baa261" opacity="1.00" d=" M 173.70 9.18 C 176.34 9.32 178.96 9.72 181.50 10.50 C 181.32 14.28 181.39 18.07 181.59 21.85 C 180.89 21.85 179.50 21.86 178.80 21.86 C 178.78 20.08 178.71 18.31 178.68 16.53 C 177.77 16.56 176.85 16.59 175.94 16.63 C 175.73 18.81 176.61 21.74 173.84 22.60 C 173.63 18.13 173.77 13.65 173.70 9.18 M 175.66 15.21 C 176.45 15.09 178.03 14.84 178.82 14.72 C 178.63 13.17 178.41 11.62 178.16 10.08 C 176.15 11.13 175.76 13.15 175.66 15.21 Z" />
<path fill="#baa261" opacity="1.00" d=" M 293.63 9.23 C 296.30 9.31 298.96 9.66 301.54 10.42 C 301.33 12.24 301.10 14.06 300.88 15.88 C 301.12 18.10 301.25 20.34 301.30 22.58 C 297.20 22.19 300.11 16.50 296.05 16.05 C 295.64 18.38 296.85 21.73 293.81 22.68 C 293.57 18.20 293.70 13.71 293.63 9.23 M 295.77 11.16 C 295.82 12.44 295.88 13.71 295.93 14.98 C 296.61 14.94 297.98 14.85 298.66 14.81 C 298.65 13.63 298.64 12.45 298.64 11.27 C 297.92 11.24 296.49 11.19 295.77 11.16 Z" />
<path fill="#baa261" opacity="1.00" d=" M 331.78 21.56 C 332.52 17.38 330.08 11.66 334.15 8.78 C 334.31 13.18 334.24 17.59 334.29 21.99 C 333.67 21.88 332.41 21.67 331.78 21.56 Z" />
<path fill="#baa261" opacity="1.00" d=" M 22.33 12.39 C 24.25 12.31 26.17 12.27 28.09 12.24 C 27.51 13.41 27.31 14.63 27.47 15.92 C 26.73 15.26 25.25 13.96 24.51 13.30 C 24.52 16.16 24.50 19.03 24.50 21.89 C 23.95 21.86 22.87 21.79 22.32 21.75 C 22.30 18.63 22.32 15.51 22.33 12.39 Z" />
<path fill="#baa261" opacity="1.00" d=" M 39.96 12.22 C 41.76 12.41 43.59 12.42 45.37 12.82 C 45.26 14.91 46.43 18.47 42.54 18.07 C 42.87 16.78 43.20 15.50 43.54 14.22 C 43.11 14.16 42.25 14.04 41.81 13.98 C 41.97 16.33 41.91 18.69 41.85 21.05 C 43.01 20.10 44.14 19.13 45.27 18.14 C 45.26 19.15 45.25 21.16 45.25 22.16 C 43.46 21.92 41.17 22.81 39.85 21.16 C 38.89 18.26 39.56 15.16 39.96 12.22 Z" />
<path fill="#baa261" opacity="1.00" d=" M 57.43 12.29 C 59.39 12.31 61.36 12.33 63.32 12.37 C 63.36 15.48 63.37 18.59 63.39 21.69 C 62.88 21.77 61.87 21.91 61.36 21.98 C 61.29 19.22 61.29 16.47 61.30 13.71 L 59.35 13.71 C 59.46 16.41 59.53 19.11 59.63 21.81 C 59.05 21.82 57.91 21.83 57.33 21.84 C 57.35 18.65 57.38 15.47 57.43 12.29 Z" />
<path fill="#baa261" opacity="1.00" d=" M 123.35 12.51 C 125.24 12.45 127.14 12.43 129.04 12.44 C 128.88 13.72 128.70 15.01 128.51 16.29 C 127.52 15.25 126.54 14.22 125.55 13.18 C 125.54 15.93 125.58 18.67 125.73 21.41 C 126.64 20.20 127.56 18.99 128.49 17.79 C 128.82 19.37 128.75 20.98 128.49 22.57 C 126.75 22.28 125.02 21.97 123.29 21.63 C 123.11 18.59 123.12 15.55 123.35 12.51 Z" />
<path fill="#baa261" opacity="1.00" d=" M 140.87 12.86 C 142.91 11.91 145.18 12.33 147.34 12.40 C 147.41 15.50 147.39 18.60 147.36 21.70 C 145.23 21.74 142.26 23.32 140.90 20.97 C 140.43 18.29 140.53 15.54 140.87 12.86 M 144.78 21.76 C 145.12 18.80 145.21 15.83 145.19 12.86 C 141.63 14.05 142.21 19.71 144.78 21.76 Z" />
<path fill="#baa261" opacity="1.00" d=" M 193.64 12.55 C 195.43 12.37 197.23 12.21 199.03 12.07 C 199.34 12.53 199.96 13.44 200.27 13.89 C 200.16 16.47 200.43 19.14 199.56 21.62 C 197.70 22.77 195.54 21.79 193.55 21.64 C 193.51 18.61 193.52 15.58 193.64 12.55 M 197.39 21.65 C 197.73 18.59 197.72 15.49 197.26 12.44 C 195.39 15.13 194.98 19.16 197.39 21.65 Z" />
<path fill="#baa261" opacity="1.00" d=" M 212.32 12.47 C 214.13 12.42 215.94 12.38 217.75 12.38 C 217.73 13.55 217.68 14.72 217.60 15.89 C 216.49 15.07 215.35 14.29 214.16 13.58 C 214.16 16.06 214.31 18.54 214.44 21.01 C 215.47 20.05 216.45 19.04 217.49 18.08 C 217.62 19.43 217.72 20.78 217.79 22.13 C 215.95 22.09 214.11 22.00 212.28 21.88 C 212.14 18.74 212.16 15.60 212.32 12.47 Z" />
<path fill="#baa261" opacity="1.00" d=" M 263.30 12.71 C 263.99 12.44 265.37 11.92 266.06 11.66 C 266.64 11.90 267.80 12.38 268.38 12.62 C 268.49 13.15 268.72 14.21 268.84 14.74 C 268.18 15.73 267.53 16.73 266.90 17.73 C 268.27 17.32 269.64 16.89 271.02 16.47 C 270.71 17.36 270.11 19.13 269.81 20.02 C 270.46 20.80 271.12 21.59 271.78 22.37 C 270.55 22.29 269.31 22.20 268.09 22.13 C 266.19 22.25 263.22 22.97 262.36 20.66 C 261.45 19.09 262.87 17.65 263.42 16.25 C 263.38 15.07 263.33 13.89 263.30 12.71 M 265.25 14.12 C 265.40 17.46 268.23 12.55 265.25 14.12 M 264.14 18.12 C 264.22 18.73 264.39 19.97 264.47 20.58 C 265.02 20.60 266.12 20.64 266.67 20.66 C 266.61 20.13 266.48 19.08 266.42 18.55 C 265.85 18.45 264.71 18.23 264.14 18.12 Z" />
<path fill="#baa261" opacity="1.00" d=" M 313.55 12.39 C 315.59 12.29 317.63 12.23 319.68 12.22 C 320.02 15.33 320.72 18.63 319.58 21.66 C 317.67 22.84 315.44 21.91 313.41 21.67 C 313.37 18.58 313.39 15.48 313.55 12.39 M 315.91 12.90 C 315.83 15.85 315.95 18.81 316.49 21.72 C 317.82 19.07 318.77 14.88 315.91 12.90 Z" />
<path fill="#baa261" opacity="1.00" d=" M 3.67 26.85 C 4.91 25.89 6.49 25.79 8.00 25.80 C 121.49 25.79 234.98 25.83 348.46 25.71 L 348.49 27.40 C 238.32 27.18 128.15 27.31 17.99 27.26 C 13.21 27.18 8.41 27.55 3.67 26.85 Z" />
<path fill="#baa261" opacity="1.00" d=" M 98.71 60.13 C 104.51 55.21 110.38 50.36 116.03 45.26 C 121.37 51.06 125.74 57.64 130.72 63.73 C 137.60 63.83 144.48 63.77 151.36 63.83 C 150.04 61.75 148.75 59.66 147.55 57.51 C 141.22 57.62 134.89 57.51 128.56 57.55 C 128.46 54.04 128.45 50.54 128.41 47.03 C 136.87 46.76 145.34 46.95 153.81 46.81 C 160.42 58.56 168.03 69.71 174.86 81.33 C 175.38 70.01 175.04 58.68 175.07 47.35 C 186.59 47.34 198.11 47.44 209.64 47.35 C 209.58 50.70 209.58 54.06 209.60 57.41 C 201.34 57.38 193.08 57.29 184.83 57.45 C 185.00 74.63 184.83 91.82 184.89 109.01 C 184.92 112.91 185.20 116.87 184.28 120.70 C 174.01 102.26 163.00 84.24 152.81 65.76 C 152.88 84.28 153.14 102.81 152.74 121.32 C 150.07 116.50 148.27 111.25 145.57 106.43 C 139.30 94.78 132.00 83.58 123.10 73.75 C 119.53 73.78 115.96 73.79 112.38 73.68 C 112.57 82.25 112.78 90.84 112.39 99.41 C 108.46 94.68 103.32 91.24 98.97 86.96 C 98.50 82.25 98.87 77.51 98.84 72.79 C 97.00 72.68 95.16 72.65 93.32 72.53 C 93.41 77.46 93.45 82.40 93.43 87.34 C 89.03 87.37 84.63 87.36 80.24 87.50 C 80.13 78.16 79.22 68.85 79.53 59.50 C 77.84 59.48 76.15 59.45 74.46 59.41 C 74.64 64.87 75.05 70.37 74.50 75.81 C 72.66 79.78 70.35 83.57 67.98 87.25 C 63.51 87.68 59.01 87.34 54.53 87.34 C 51.54 83.17 47.50 79.83 44.64 75.60 C 43.87 70.26 43.77 64.84 43.57 59.46 C 39.46 59.52 35.36 59.52 31.25 59.42 C 31.32 60.83 31.39 62.25 31.46 63.66 C 34.49 63.60 37.52 63.57 40.56 63.51 C 40.80 66.85 40.96 70.20 40.83 73.55 C 37.94 73.45 35.06 73.30 32.18 73.15 C 32.21 74.42 32.24 75.70 32.27 76.97 C 35.53 76.66 38.79 76.32 42.06 76.22 C 44.90 79.94 47.95 83.49 50.85 87.17 C 40.36 87.66 29.85 87.23 19.36 87.19 C 19.15 77.90 18.30 68.64 17.75 59.37 C 15.30 59.40 12.86 59.44 10.41 59.49 C 10.39 55.31 10.37 51.13 10.36 46.95 C 25.25 46.89 40.15 46.72 55.03 47.00 C 55.68 56.02 56.45 65.05 56.17 74.10 C 57.32 75.36 58.47 76.61 59.63 77.85 C 60.66 76.35 62.42 75.04 62.23 73.02 C 62.23 64.33 62.22 55.63 62.18 46.93 C 78.85 46.87 95.52 46.81 112.19 46.97 C 107.35 51.45 101.98 55.29 97.07 59.68 C 95.42 59.61 93.78 59.54 92.14 59.46 C 92.22 60.90 92.31 62.34 92.40 63.78 C 94.89 63.75 97.38 63.75 99.87 63.77 C 99.49 62.55 99.10 61.34 98.71 60.13 M 110.77 59.98 C 110.79 61.26 110.82 62.53 110.84 63.80 C 113.52 63.76 116.20 63.76 118.88 63.77 C 117.57 61.82 116.34 59.80 114.86 57.99 C 113.44 58.55 112.12 59.29 110.77 59.98 M 134.34 73.27 C 138.32 76.05 141.44 79.81 143.77 84.04 C 143.47 80.48 143.32 76.91 143.34 73.35 C 140.34 73.39 137.34 73.37 134.34 73.27 Z" />
<path fill="#baa261" opacity="1.00" d=" M 208.56 63.96 C 213.82 58.00 218.05 51.09 224.02 45.79 C 228.16 48.59 231.49 52.40 235.49 55.39 C 237.91 57.56 241.75 59.22 241.55 63.06 C 242.87 63.01 244.21 62.96 245.54 62.92 C 245.61 60.71 245.70 58.50 245.83 56.29 C 248.94 53.91 251.77 51.21 254.90 48.85 C 255.77 48.10 256.79 47.77 257.96 47.85 C 275.82 47.82 293.68 47.91 311.54 47.84 C 309.64 51.20 308.15 54.80 306.00 58.01 C 302.09 58.34 298.17 58.04 294.28 57.73 C 294.20 63.91 293.95 70.08 293.53 76.25 C 295.29 76.13 297.05 76.06 298.82 75.96 C 303.27 66.26 308.81 57.10 313.14 47.34 C 322.86 47.24 332.56 48.10 342.28 47.76 C 341.82 51.19 341.77 54.66 341.18 58.07 C 337.89 58.32 334.60 58.11 331.32 57.95 C 336.01 67.90 340.36 78.04 344.25 88.34 C 339.45 88.50 334.66 88.29 329.87 88.35 C 327.47 83.56 324.93 78.83 322.88 73.87 C 320.27 73.96 317.65 74.04 315.04 74.09 C 313.25 78.34 311.17 82.47 309.57 86.81 C 309.17 87.19 308.36 87.97 307.95 88.36 C 293.40 88.36 278.84 87.53 264.28 88.15 C 267.61 84.50 271.41 81.32 274.90 77.83 C 276.34 75.99 278.86 76.73 280.88 76.50 C 280.85 70.11 281.34 63.73 281.84 57.37 C 275.60 57.51 269.34 57.10 263.11 57.51 C 260.30 57.87 258.54 60.18 258.33 62.92 C 263.07 63.12 267.87 62.50 272.57 63.25 C 275.48 65.61 277.81 68.58 280.46 71.21 C 275.66 75.81 270.36 79.86 265.61 84.52 C 263.96 85.92 262.47 88.07 260.05 87.95 C 255.17 88.13 250.28 87.81 245.39 87.95 C 245.68 84.26 245.79 80.55 246.10 76.86 C 250.48 76.81 254.86 76.81 259.24 76.91 C 260.20 75.77 261.21 74.66 262.24 73.57 C 255.23 74.06 248.20 73.76 241.19 73.64 C 241.09 78.11 240.62 82.57 240.47 87.04 C 235.24 90.59 230.71 95.05 227.05 100.20 C 227.07 91.48 227.32 82.77 227.85 74.07 C 224.61 74.11 221.37 74.11 218.14 74.13 C 211.60 79.98 205.97 86.76 200.82 93.84 C 194.42 101.90 190.68 111.60 186.79 121.01 C 186.58 102.05 186.90 83.07 186.86 64.10 C 194.09 63.83 201.33 63.98 208.56 63.96 M 320.31 56.74 C 318.93 59.11 317.48 61.44 316.00 63.75 C 318.66 63.75 321.32 63.74 323.99 63.72 C 322.75 61.40 321.54 59.06 320.31 56.74 M 219.78 63.91 C 222.78 64.00 225.79 64.09 228.80 64.12 C 228.14 61.66 226.69 59.59 225.02 57.72 C 223.33 59.83 221.55 61.87 219.78 63.91 M 196.21 73.43 C 196.24 77.03 196.17 80.62 196.06 84.21 C 198.63 80.21 201.84 76.70 205.25 73.40 C 202.23 73.45 199.22 73.48 196.21 73.43 Z" />
</g>
<g id="#4e3524ff">
<path fill="#4e3524" opacity="1.00" d=" M 144.78 21.76 C 142.21 19.71 141.63 14.05 145.19 12.86 C 145.21 15.83 145.12 18.80 144.78 21.76 Z" />
<path fill="#4e3524" opacity="1.00" d=" M 265.25 14.12 C 268.23 12.55 265.40 17.46 265.25 14.12 Z" />
<path fill="#4e3524" opacity="1.00" d=" M 296.35 69.72 C 297.22 69.38 298.96 68.70 299.83 68.36 C 298.78 70.63 297.53 72.81 296.11 74.87 C 296.03 73.20 295.99 71.54 295.95 69.87 L 296.35 69.72 Z" />
</g>
<g id="#a3351fff">
<path fill="#a3351f" opacity="1.00" d=" M 2.45 40.49 C 47.62 40.21 92.79 40.69 137.97 40.59 C 144.32 40.80 150.69 40.34 157.03 40.74 C 158.46 41.86 159.34 43.48 160.27 45.00 C 162.69 49.29 165.79 53.21 167.64 57.81 C 167.41 52.25 167.09 46.66 167.39 41.10 C 171.89 40.33 176.48 40.74 181.02 40.69 C 190.35 40.85 199.68 40.62 209.00 40.86 C 214.66 41.31 220.34 41.26 226.02 41.21 C 233.03 40.38 235.87 49.09 241.83 50.70 C 246.03 48.14 249.05 43.97 253.44 41.67 C 255.57 41.08 257.82 41.27 260.01 41.22 C 289.85 41.43 319.69 40.97 349.52 41.51 C 348.49 49.10 349.10 56.85 347.39 64.35 C 345.53 64.41 343.67 64.53 341.82 64.61 C 341.49 64.16 340.83 63.26 340.50 62.82 C 343.45 67.55 345.14 72.88 347.33 77.98 C 349.51 83.40 352.22 88.71 353.02 94.57 C 343.43 94.63 333.85 94.70 324.26 94.66 C 322.71 90.71 320.96 86.81 318.42 83.40 C 316.68 87.14 315.02 90.92 313.16 94.60 C 293.77 94.56 274.39 94.16 255.01 94.25 C 250.48 94.36 245.88 93.77 241.42 94.64 C 238.14 96.50 235.96 99.73 233.59 102.56 C 228.79 109.03 224.97 116.16 221.01 123.15 C 220.62 123.31 219.85 123.63 219.47 123.79 C 219.90 109.73 219.49 95.65 219.63 81.59 C 212.00 88.58 205.99 97.26 201.70 106.66 C 195.89 119.54 191.16 132.86 186.03 146.02 C 177.17 127.98 168.23 109.97 159.54 91.86 C 160.76 109.71 160.56 127.65 160.36 145.54 C 160.03 145.49 159.37 145.38 159.03 145.32 C 146.73 122.72 133.62 100.54 119.40 79.08 C 119.55 93.38 120.05 107.68 119.71 121.98 C 115.48 118.36 113.40 113.12 110.18 108.71 C 106.73 103.92 102.88 99.37 98.43 95.49 C 95.00 92.44 90.10 93.63 85.94 93.45 C 61.80 93.36 37.64 93.70 13.51 93.07 C 12.16 83.88 12.90 74.49 10.63 65.42 C 8.56 65.47 6.50 65.51 4.43 65.55 C 2.98 57.26 4.10 48.76 2.45 40.49 M 109.05 44.69 C 75.09 44.74 41.14 44.52 7.19 44.51 C 7.20 50.20 7.89 55.84 8.61 61.47 C 10.84 61.48 13.08 61.48 15.31 61.48 C 15.40 70.61 16.52 79.69 17.26 88.79 C 26.81 89.81 36.43 89.13 46.02 89.42 C 53.86 89.15 61.75 89.93 69.57 89.20 C 72.35 85.12 74.04 80.36 77.14 76.45 C 77.50 80.76 77.50 85.09 77.61 89.41 C 83.61 89.71 89.64 89.05 95.62 89.63 C 99.47 90.90 102.42 93.93 105.47 96.49 C 109.22 99.90 113.00 103.40 115.58 107.82 C 115.24 97.25 114.84 86.68 114.80 76.11 C 117.79 76.53 121.88 75.12 123.85 78.11 C 131.64 88.16 138.97 98.58 145.26 109.63 C 148.54 115.39 150.81 121.68 154.57 127.16 C 155.20 124.15 155.57 121.09 155.52 118.01 C 155.44 104.10 155.42 90.18 155.41 76.27 C 160.83 84.84 165.20 94.01 170.23 102.81 C 175.33 112.91 181.46 122.49 186.00 132.86 C 188.19 123.27 191.19 113.74 196.13 105.18 C 202.13 95.14 208.67 85.22 217.53 77.46 C 219.54 75.66 222.47 76.25 224.92 76.30 C 225.60 80.19 225.22 84.15 225.08 88.06 C 224.65 94.73 224.96 101.42 224.37 108.08 C 229.26 101.27 233.32 92.27 242.01 89.74 C 254.35 89.55 266.71 89.79 279.06 89.77 C 289.34 89.66 299.64 90.97 309.90 90.13 C 312.66 85.70 314.35 80.68 317.19 76.28 C 318.32 76.28 319.46 76.28 320.61 76.29 C 323.20 80.94 325.76 85.62 327.88 90.52 C 334.44 90.57 341.00 90.72 347.56 90.31 C 343.13 80.47 339.13 70.44 335.12 60.43 C 337.80 60.40 340.48 60.39 343.17 60.37 C 343.81 55.42 344.82 50.40 343.76 45.43 C 315.50 45.58 287.24 45.48 258.99 45.52 C 256.93 45.50 254.75 45.69 253.14 47.12 C 249.05 50.49 244.48 53.57 241.71 58.23 C 236.96 54.02 232.18 49.83 227.33 45.74 C 225.53 44.00 222.35 43.65 220.53 45.52 C 217.90 48.09 215.87 51.19 213.86 54.25 C 213.36 54.41 212.36 54.74 211.85 54.91 C 211.75 51.74 211.69 48.58 211.66 45.41 C 198.48 45.45 185.28 45.01 172.12 45.51 C 171.02 54.06 172.31 62.82 171.48 71.45 C 165.68 63.02 160.73 54.03 155.40 45.30 C 145.72 44.33 135.97 44.78 126.26 44.81 C 125.97 47.61 125.72 50.41 125.48 53.21 C 122.56 50.18 119.86 46.95 117.38 43.55 C 114.65 44.22 111.86 44.71 109.05 44.69 Z" />
<path fill="#a3351f" opacity="1.00" d=" M 131.08 59.41 C 136.46 59.93 142.76 57.68 147.42 61.13 C 142.02 61.68 136.59 61.52 131.17 61.41 C 131.15 60.91 131.11 59.91 131.08 59.41 Z" />
<path fill="#a3351f" opacity="1.00" d=" M 188.67 59.59 C 195.07 59.25 201.48 59.41 207.88 59.48 C 207.79 60.01 207.60 61.09 207.51 61.63 C 201.19 61.76 194.88 61.69 188.57 61.54 C 188.59 61.06 188.65 60.08 188.67 59.59 Z" />
<path fill="#a3351f" opacity="1.00" d=" M 261.18 60.23 C 267.03 58.10 273.35 59.34 279.41 59.38 C 278.99 61.73 278.58 64.07 278.16 66.42 C 276.78 64.77 275.43 63.10 274.10 61.42 C 269.78 61.18 265.41 61.25 261.18 60.23 Z" />
<path fill="#a3351f" opacity="1.00" d=" M 296.81 60.87 C 298.32 58.83 301.19 60.09 303.34 59.82 C 302.24 62.62 301.13 65.42 300.11 68.25 L 299.83 68.36 C 298.96 68.70 297.22 69.38 296.35 69.72 C 296.39 66.77 296.30 63.79 296.81 60.87 Z" />
</g>
</svg>
