<svg xmlns="http://www.w3.org/2000/svg" data-name="Layer 1" viewBox="0 0 64 64"><circle cx="32" cy="32" r="27" fill="#c49a6c"/><path fill="#3c2415" d="M46.66 38.56c-3.72-4.25-3.22-8.37-3.22-8.37-1-10.92-11-12.37-11.44-12.43h0c-.44.06-10.48 1.52-11.44 12.43 0 0 .49 4.13-3.22 8.38S31.68 40.42 32 40.38 50.34 42.78 46.66 38.56zM48.75 53.16a26.94 26.94 0 0 1-33.5 0L16 50.5A9.12 9.12 0 0 1 24.79 44H39.21A9.12 9.12 0 0 1 48 50.5z"/><path fill="#a7613b" d="M36,39.94v5.47a.94.94,0,0,1-.52.84l-3.06,1.53a.94.94,0,0,1-.84,0l-3.06-1.53a.94.94,0,0,1-.52-.84V39.94a.94.94,0,0,1,.94-.94h6.11A.94.94,0,0,1,36,39.94Z"/><path fill="#fff" d="M36,44v1.42a.94.94,0,0,1-.52.84l-3.06,1.53a.93.93,0,0,1-.84,0l-3.06-1.53a.94.94,0,0,1-.52-.84V44H26v1.42A2.92,2.92,0,0,0,27.63,48l3,1.53a3,3,0,0,0,2.64,0l3-1.53A2.92,2.92,0,0,0,38,45.42V44Z" opacity=".1"/><path fill="#a7613b" d="M32,15.21C43,15.21,42.1,26,42.1,26c1.62-.17,2.9.49,2.9,2.86s-1,2.86-2.26,3a.28.28,0,0,0-.26.27c-.38,3.69-2.9,6.39-5.38,8.2a8.59,8.59,0,0,1-10.19,0c-2.48-1.81-5-4.52-5.38-8.2a.28.28,0,0,0-.26-.27c-1.27-.13-2.26-.63-2.26-3s1.22-3,2.84-2.86C21.84,26,20.94,15.21,32,15.21Z"/><path fill="#262234" d="M36,41v2a8.5,8.5,0,0,1-8,0V41a8.5,8.5,0,0,0,8,0Z" opacity=".1"/><circle cx="28.04" cy="28.15" r="1.7" fill="#3c2415"/><circle cx="35.96" cy="28.15" r="1.7" fill="#3c2415"/><path fill="#611c24" d="M35.87,32.53a1,1,0,0,1,1,1.25,5,5,0,0,1-9.68,0,1,1,0,0,1,1-1.25Z"/><path fill="#be1e2d" d="M34.42,36.91a5,5,0,0,1-4.84,0c.2-1.23,1.21-1.57,2.42-1.57S34.22,35.68,34.42,36.91Z"/><path fill="#fff" d="M34.87,32.53v.95a.37.37,0,0,1-.36.37h-5a.37.37,0,0,1-.36-.37v-.95Z"/><path fill="#3c2415" d="M43.5,22.2C43,15.34,36.87,13,32,13S21,15.34,20.5,22.2a11.32,11.32,0,0,0,.1,3.42A31.59,31.59,0,0,0,21,29.26c.18.78,1.07.75,1.19.05a22.32,22.32,0,0,1,2.52-8.39l.8,2.69a1,1,0,0,0,1,.71H37.58a1,1,0,0,0,1-.71l.8-2.68a22.33,22.33,0,0,1,2.51,8.37c.11.7,1,.73,1.19-.05a30.79,30.79,0,0,0,.34-3.57A11.23,11.23,0,0,0,43.5,22.2Z"/></svg>