<svg xmlns="http://www.w3.org/2000/svg" data-name="Layer 1" viewBox="0 0 64 64"><circle cx="32" cy="32" r="27" fill="#be1e2d"/><path fill="#262234" d="M46.66 38.56c-3.72-4.25-3.22-8.37-3.22-8.37-1-10.92-11-12.37-11.44-12.43h0c-.44.06-10.48 1.52-11.44 12.43 0 0 .49 4.13-3.22 8.38S31.68 40.42 32 40.38 50.35 42.78 46.66 38.56zM48.75 53.16a26.94 26.94 0 0 1-33.5 0l.8-2.66A9.12 9.12 0 0 1 24.79 44H39.21A9.12 9.12 0 0 1 48 50.5z"/><path fill="#ffd2b4" d="M32,15.21C43.05,15.21,42.11,26,42.11,26c1.62-.17,2.9.49,2.9,2.86s-1,2.86-2.26,3a.28.28,0,0,0-.26.27c-.38,3.69-2.9,6.39-5.38,8.2a8.59,8.59,0,0,1-10.19,0c-2.48-1.81-5-4.52-5.38-8.2a.28.28,0,0,0-.26-.27c-1.27-.13-2.26-.63-2.26-3s1.22-3,2.84-2.86C21.84,26,20.95,15.21,32,15.21Z"/><path fill="#262234" d="M43.5,22.2C43,15.34,36.88,13,32,13S21,15.34,20.51,22.2a11.32,11.32,0,0,0,.1,3.42A31.62,31.62,0,0,0,21,29.26c.18.78,1.07.75,1.19.05a22.32,22.32,0,0,1,2.52-8.39l.8,2.69a1,1,0,0,0,1,.71H37.58a1,1,0,0,0,1-.71l.8-2.68a22.33,22.33,0,0,1,2.51,8.37c.11.7,1,.73,1.19-.05a30.8,30.8,0,0,0,.34-3.57A11.23,11.23,0,0,0,43.5,22.2Z"/><path fill="#ffd2b4" d="M36,39v5.76a2,2,0,0,1-1.11,1.8h0a6.46,6.46,0,0,1-5.78,0h0A2,2,0,0,1,28,44.76V39Z"/><path fill="#fff" d="M36,44v.76a2,2,0,0,1-1.11,1.8,6.48,6.48,0,0,1-5.78,0A2,2,0,0,1,28,44.76V44H26v.76a4,4,0,0,0,2.22,3.58,8.39,8.39,0,0,0,7.56,0A4,4,0,0,0,38,44.76V44Z" opacity=".2"/><path fill="#262234" d="M36,41.08v1.5a9.16,9.16,0,0,1-8,0v-1.5a9.16,9.16,0,0,0,8,0Z" opacity=".1"/><circle cx="28.04" cy="29.31" r="1.7" fill="#262234"/><circle cx="35.96" cy="29.31" r="1.7" fill="#262234"/><path fill="#262234" d="M30.3 27.42a.48.48 0 0 1-.17 0L27 26.26a.5.5 0 1 1 .34-.94l3.15 1.13a.5.5 0 0 1-.17 1zM33.7 27.42a.5.5 0 0 1-.17-1l3.15-1.12a.5.5 0 1 1 .34.94l-3.15 1.13A.48.48 0 0 1 33.7 27.42z"/><path fill="#611c24" d="M28.76,36.93a1.34,1.34,0,0,1-1.12-2.08,5.46,5.46,0,0,1,8.73,0,1.34,1.34,0,0,1-1.12,2.08Z"/><path fill="#be1e2d" d="M34.36,36.93H29.64A2.11,2.11,0,0,1,32,35.12,2.11,2.11,0,0,1,34.36,36.93Z"/><path fill="#fff" d="M34.87,33.45v.29a.37.37,0,0,1-.36.37h-5a.37.37,0,0,1-.36-.37v-.29a5.73,5.73,0,0,1,5.74,0Z"/></svg>