<?xml version="1.0" encoding="UTF-8" ?>
<!DOCTYPE svg PUBLIC "-//W3C//DTD SVG 1.1//EN" "http://www.w3.org/Graphics/SVG/1.1/DTD/svg11.dtd">
<svg width="1920pt" height="64pt" viewBox="0 0 1920 64" version="1.1" xmlns="http://www.w3.org/2000/svg">
<g id="#0a1614ff">
<path fill="#0a1614" opacity="1.00" d=" M 0.00 0.00 L 1916.41 0.00 C 1905.59 0.48 1894.76 0.57 1883.94 0.87 C 1873.00 2.14 1861.92 1.10 1850.98 2.26 C 1842.65 2.66 1834.30 2.59 1825.98 2.88 C 1814.34 4.11 1802.57 3.16 1790.93 4.38 C 1777.26 4.43 1763.63 5.42 1749.97 5.66 C 1741.28 5.59 1732.65 6.67 1723.96 6.60 C 1712.95 6.47 1702.02 7.76 1691.01 7.68 C 1683.66 7.50 1676.37 8.63 1669.03 8.52 C 1657.00 8.53 1645.03 9.71 1633.01 9.68 C 1626.00 9.49 1619.06 10.61 1612.06 10.51 C 1598.04 10.53 1584.08 11.86 1570.05 11.75 C 1557.39 12.94 1544.65 12.23 1532.00 13.35 C 1521.86 13.75 1511.69 13.43 1501.59 14.41 C 1485.35 14.45 1469.17 15.80 1452.93 15.79 C 1441.32 16.99 1429.62 16.21 1418.01 17.30 C 1407.34 17.70 1396.64 17.51 1386.00 18.41 C 1376.97 18.79 1367.91 18.36 1358.92 19.35 C 1348.21 19.58 1337.50 19.77 1326.81 20.44 C 1311.19 20.50 1295.63 21.82 1280.00 21.80 C 1269.39 22.77 1258.72 22.49 1248.09 22.97 C 1239.37 23.77 1230.61 23.49 1221.88 23.85 C 1212.25 24.79 1202.55 24.43 1192.91 24.87 C 1185.63 25.63 1178.30 25.45 1170.99 25.69 C 1164.34 25.57 1157.74 26.58 1151.09 26.49 C 1136.37 26.55 1121.71 27.88 1106.98 27.77 C 1095.01 29.05 1082.93 28.14 1070.96 29.32 C 1063.28 29.61 1055.59 29.64 1047.92 29.82 C 1036.33 31.09 1024.62 30.14 1013.03 31.35 C 996.33 31.53 979.68 32.80 962.98 32.76 C 953.34 33.70 943.64 33.54 933.97 33.79 C 923.66 34.78 913.29 34.49 902.95 34.88 C 893.65 35.92 884.26 35.40 874.92 35.85 C 865.27 36.87 855.54 36.36 845.87 36.97 C 834.93 37.93 823.92 37.21 812.99 38.26 C 804.98 38.61 796.95 38.61 788.93 38.81 C 779.29 39.80 769.58 39.46 759.90 39.89 C 749.97 40.77 739.98 40.53 730.02 40.82 C 718.70 42.13 707.27 41.11 695.95 42.32 C 687.95 42.60 679.95 42.69 671.96 42.85 C 662.98 43.83 653.94 43.47 644.93 43.85 C 634.93 44.83 624.87 44.39 614.85 44.95 C 604.02 45.97 593.10 45.18 582.28 46.26 C 572.18 46.78 562.04 46.35 551.97 47.32 C 544.31 47.60 536.64 47.63 528.98 47.81 C 519.65 48.83 510.25 48.43 500.90 48.85 C 489.31 49.99 477.63 49.17 466.04 50.30 C 458.36 50.57 450.68 50.65 443.00 50.79 C 432.68 51.83 422.30 51.47 411.95 51.92 C 400.78 53.11 389.49 52.12 378.32 53.33 C 370.53 53.65 362.73 53.60 354.93 53.87 C 346.04 54.87 337.05 54.41 328.11 54.85 C 317.76 55.75 307.35 55.50 296.97 55.87 C 286.40 57.11 275.70 56.11 265.12 57.23 C 254.77 57.85 244.37 57.29 234.05 58.33 C 224.39 58.72 214.71 58.48 205.07 59.36 C 188.37 59.44 171.74 60.73 155.04 60.79 C 142.39 62.08 129.63 61.13 116.98 62.39 C 102.60 62.59 88.24 63.34 73.88 64.00 L 0.00 64.00 L 0.00 0.00 Z" />
</g>
<g id="#ffffffff">
</g>
</svg>
